<svg xmlns="http://www.w3.org/2000/svg" width="71" height="70" viewBox="0 0 71 70" fill="none">
  <g clip-path="url(#clip0_2452_2921)">
    <path d="M63.8653 26.25H21.1544C20.2358 26.2498 19.3404 26.5387 18.5952 27.0758C17.85 27.6129 17.2928 28.371 17.0025 29.2425L9.25 52.5V21.875H61.75C61.75 20.7147 61.2891 19.6019 60.4686 18.7814C59.6481 17.9609 58.5353 17.5 57.375 17.5H33.5837C32.5604 17.4995 31.5697 17.1404 30.7838 16.485L27.9662 14.14C27.1803 13.4846 26.1896 13.1255 25.1663 13.125H9.25C8.08968 13.125 6.97688 13.5859 6.15641 14.4064C5.33594 15.2269 4.875 16.3397 4.875 17.5V52.5C4.875 53.6603 5.33594 54.7731 6.15641 55.5936C6.97688 56.4141 8.08968 56.875 9.25 56.875H57.375L67.8859 32.3488C68.1712 31.6833 68.2868 30.9575 68.2225 30.2364C68.1582 29.5153 67.916 28.8214 67.5175 28.217C67.119 27.6125 66.5768 27.1164 65.9393 26.7731C65.3019 26.4298 64.5893 26.2501 63.8653 26.25Z" fill="#EF5350"/>
    <path d="M55.1875 30.625C52.159 30.625 49.1985 31.5231 46.6803 33.2056C44.1622 34.8882 42.1996 37.2797 41.0406 40.0777C39.8816 42.8757 39.5784 45.9545 40.1692 48.9248C40.7601 51.8952 42.2184 54.6236 44.3599 56.7651C46.5014 58.9066 49.2299 60.3649 52.2002 60.9558C55.1705 61.5466 58.2494 61.2434 61.0473 60.0844C63.8453 58.9254 66.2368 56.9628 67.9194 54.4447C69.6019 51.9265 70.5 48.966 70.5 45.9375C70.5 41.8764 68.8867 37.9816 66.0151 35.1099C63.1434 32.2383 59.2486 30.625 55.1875 30.625ZM57.375 35V48.125H53V35H57.375ZM53 56.875V52.5H57.375V56.875H53Z" fill="#FFCDD2"/>
  </g>
  <defs>
    <clipPath id="clip0_2452_2921">
      <rect width="70" height="70" fill="white" transform="translate(0.5)"/>
    </clipPath>
  </defs>
</svg>