<svg width="102" height="379" viewBox="0 0 102 379" fill="none" xmlns="http://www.w3.org/2000/svg">
<g opacity="0.14" clip-path="url(#clip0_5_678)">
<path d="M96.0981 164.035V157.936L102 152.181L96.2039 146.399V140.538H89.8256L86.0145 136.868L89.6933 132.987H95.8599V127.073V121.159H89.6933L86.0145 117.277L89.8256 113.608H96.2039V107.746L102 101.964L96.0981 96.2087V90.1099H89.8786L86.0939 86.0704L90.5667 81.8989H100.121V79.2587H89.508L84.2678 84.143L79.6627 79.2059H75.5605V61.4901H83.5003V71.4701H100.121V68.8299H86.1469V61.4901H96.3363V37.7548H90.2226L86.5174 34.0057L90.0109 30.7319H95.8599V24.369L101.974 18.8774L96.9979 12.8578V6.25726H90.699L85.3793 0L80.6684 5.70282H73.4432V13.2538L69.4997 16.6332L65.424 12.7785V2.05935H62.7774V13.9138L67.4883 18.3758L62.1157 22.9961V27.1148H44.7011V19.511H55.3404V2.05935H52.6938V16.8708H44.7011V5.70282H20.7758V12.7785L17.2029 16.1052L13.3389 12.1977V6.07245H7.25169L2.8054 1.16169L0.846912 2.93062L6.08718 8.71264H10.6923V13.2802L15.2709 17.9005L10.3217 22.4681V26.7452H6.19305L0 32.844L6.14011 39.8141H10.3217V58.0315H1.82615V60.6717H12.9683V37.174H7.33108L3.62584 32.976L7.27815 29.3854H12.9683V23.6033L17.1235 19.7487L21.014 23.6826V54.4408L25.328 59.1404L20.0083 63.9983V68.8563H1.82615V71.4965H22.6814V65.16L27.1277 61.0941L31.2299 65.5296V71.2853H37.1053L40.7577 74.9815L36.6819 78.889H5.2138L0.105864 85.2519L5.39907 91.7732H9.92475V95.2318L14.2387 100.248L9.36897 104.789V109.621H5.66373L0.13233 116.089L5.2138 122.875H9.39543V127.073V131.271H5.18734L0.13233 138.056L5.66373 144.524H9.39543V149.356L14.2652 153.897L9.95122 158.913V162.372H5.42553L0.13233 168.893L5.24027 175.256H36.7084L40.7841 179.164L37.1318 182.86H31.2299V188.642L27.1277 193.077L22.6814 189.012V182.675H1.82615V185.315H20.0348V190.173L25.3544 195.031L21.0405 199.704V230.463L17.15 234.397L12.9683 230.542V224.76H7.27815L3.62584 221.169L7.33108 216.971H12.9683V193.473H1.82615V196.114H10.3217V214.331H6.14011L0 221.301L6.19305 227.4H10.3217V231.677L15.2709 236.245L10.6923 240.865V245.433H6.08718L0.846912 251.188L1.82615 252.086L0.846912 252.984L6.08718 258.739H10.6923V263.307L15.2709 267.927L10.3217 272.495V276.772H6.19305L0 282.871L6.14011 289.841H10.3217V308.058H1.82615V310.698H12.9683V287.2H7.33108L3.62584 283.003L7.27815 279.412H12.9683V273.63L17.1235 269.775L21.014 273.709V304.467L25.328 309.14L20.0083 313.998V318.856H1.82615V321.497H22.6814V315.16L27.1277 311.094L31.2299 315.53V321.312H37.1053L40.7577 325.008L36.6819 328.916H5.2138L0.105864 335.278L5.39907 341.8H9.92475V345.258L14.2387 350.275L9.36897 354.816V359.647H5.66373L0.13233 366.116L5.2138 372.901H9.39543V377.099H12.042V370.261H6.5371L3.51998 366.248L6.88116 362.288H12.042V355.951L15.9855 352.281L20.0348 356.981V377.099H22.6814V356.004L17.9175 350.486L23.0519 345.707V341.984H41.1282V350.09H30.4888V373.086H36.576L42.081 379L47.9035 373.35H79.7421L84.109 369.152L88.5288 373.825H93.1868V377.099H95.8334V371.185H89.6668L85.9881 367.304L89.7992 363.634H96.1775V357.773L101.974 351.991L96.0716 346.235V340.136H89.8521L86.0675 336.07L90.5402 331.899H100.094V329.259H89.4816L84.2413 334.143L79.6627 329.232H75.5605V311.517H83.5003V321.497H100.121V318.856H86.1469V311.517H96.3363V287.781H90.2226L86.5174 284.032L90.0109 280.758H95.8599V274.448L101.974 268.957L96.9979 262.937V256.31H90.699L87.1526 252.112L90.699 247.914H96.9979V241.287L101.974 235.268L95.8599 229.776V223.466H90.0109L86.5174 220.192L90.2226 216.443H96.3363V192.708H86.1204V185.368H100.094V182.728H83.4738V192.708H75.534V174.992H79.6627L84.2678 170.055L89.508 174.939H100.121V172.299H90.5667L86.0939 168.128L89.8786 164.062H96.0981V164.035ZM88.5553 123.799H93.2133V127.073V130.346H88.5553L84.1354 135.02L79.7685 130.822H47.9035L44.0394 127.046L47.9035 123.297H79.7421L84.109 119.099L88.5553 123.799ZM48.2211 182.675L44.5423 179.137L48.5651 175.071H54.1759V151.442H43.7748V143.785H62.1157V148.036L66.9325 152.867L62.2216 157.752V188.616L58.3576 192.708L54.2289 188.985V182.675H48.2211ZM64.7623 146.953V141.145H41.1282V151.442H33.1354V133.726H37.7405L42.1868 128.947L46.8184 133.462H78.6834L82.2828 136.921L79.001 140.379H72.4639V147.138L68.7587 150.966L64.7623 146.953ZM17.9175 153.712L22.6814 148.194V127.099V106.004L17.9175 100.486L23.0519 95.7071V91.9844H41.1282V100.063H30.4888V123.06H36.576L40.3342 127.073L36.576 131.086H30.4888V154.082H41.1282V162.187H23.0519V158.465L17.9175 153.712ZM48.5387 79.0738L44.5158 75.0079L48.1946 71.4701H54.2024V65.16L58.3311 61.4373L62.1951 65.5296V96.3935L66.9061 101.278L62.0893 106.109V110.36H43.7483V102.704H54.1495V79.0738H48.5387ZM64.7623 113V107.192L68.7587 103.152L72.4639 106.981V113.713H79.001L82.2828 117.172L78.6834 120.657H46.8184L42.1868 125.172L37.7405 120.393H33.1354V102.704H41.1282V113H64.7623ZM88.7141 92.7765H93.4515V97.344L98.2418 102.017L93.5838 106.664V110.994H88.767L84.1884 115.377L80.1391 111.126H75.1105V105.951L70.6113 101.304L75.2958 96.6047V91.9844H79.7156L84.109 87.8921L88.7141 92.7765ZM72.9139 58.8499V81.8461H78.5247L82.3358 85.9384L78.6834 89.3178H72.6492V95.4959L68.8116 99.3769L64.8682 95.311V64.4736L60.316 59.6684L64.7623 55.6553V50.6125H83.5003V58.8499H72.9139ZM89.1111 40.3686H93.6897V58.8236H86.1204V47.9459H62.0893V54.4408L58.4899 57.7411L54.4141 53.4111V47.9723H48.7769L44.8334 44.0385L48.7769 40.1838H79.9273L84.5854 35.7746L89.1111 40.3686ZM76.0633 14.4683V8.34302H81.8858L85.3793 4.1187L89.4286 8.89746H94.3249V13.8346L98.2948 18.6134L93.2133 23.1809V28.0389H88.9787L84.6912 32.0784L80.1655 27.4844H75.9045V22.6529L71.4582 18.455L76.0633 14.4683ZM64.7623 29.755V24.2106L69.4203 20.1975L73.2315 23.7882V30.1246H79.0275L82.7327 33.9001L78.8687 37.5436H47.6917L42.9543 42.1639L37.9523 37.174H33.6912V19.511H42.0545V29.755H64.7623ZM23.6871 53.4375V22.6265L19.0555 17.9797L23.4224 13.9402V8.34302H42.0545V16.8708H31.0446V39.8141H36.8672L41.0752 44.0121L37.2377 47.7875H31.0446V53.9392L27.2865 57.3714L23.6871 53.4375ZM38.2169 68.6451H33.8765V64.4736L29.0861 59.2724L33.6912 55.0745V50.4277H38.3228L42.9543 45.8866L47.6917 50.6125H51.7675V54.4672L56.5314 59.51L51.5822 63.9719V68.8299H47.136L42.6632 73.1334L38.2169 68.6451ZM12.5978 94.255V89.133H6.66943L3.51998 85.2255L6.51064 81.5292H37.767L42.6367 76.8561L47.4536 81.714H51.5293V100.063H43.7748V89.3178H20.4053V94.519L16.1972 98.4265L12.5978 94.255ZM12.042 148.221V141.884H6.88116L3.51998 137.924L6.5371 133.911H12.042V127.073V120.234H6.5371L3.51998 116.195L6.88116 112.235H12.042V105.898L15.9855 102.228L20.0348 106.928V127.046V147.164L15.9855 151.864L12.042 148.221ZM37.767 172.616H6.48417L3.49351 168.92L6.66943 165.012H12.5978V159.89L16.1972 155.692L20.4053 159.6V164.827H43.7748V154.082H51.5293V172.431H47.4536L42.6103 177.289L37.767 172.616ZM33.8765 189.672V185.5H38.2169L42.6632 181.012L47.136 185.315H51.5822V190.173L56.5314 194.635L51.7675 199.678V203.533H47.6917L42.9543 208.259L38.3228 203.717H33.6912V199.044L29.0861 194.846L33.8765 189.672ZM23.6871 231.519V200.708L27.3129 196.8L31.0711 200.232V206.384H37.2641L41.1017 210.16L36.8936 214.357H31.0711V237.301H42.081V245.802H23.4224V240.205L19.0555 236.165L23.6871 231.519ZM80.6419 248.442L83.6591 252.086L80.6419 255.729H73.4167V263.28L69.4997 266.66L65.424 262.805V252.086V241.367L69.4997 237.512L73.4167 240.891V248.442H80.6419ZM62.7774 240.231V252.086V263.94L67.4883 268.376L62.1157 272.996V277.115H44.7011V269.511H55.3404V252.059V234.608H44.7011V227.004H62.1157V231.123L67.4883 235.769L62.7774 240.231ZM79.0275 280.151L82.7327 283.927L78.8687 287.57H47.6917L42.9543 292.19L37.9523 287.2H33.6912V269.538H42.0545V279.781H64.7623V274.211L69.4203 270.198L73.2315 273.788V280.125H79.0275V280.151ZM64.7623 229.935V224.364H42.0545V234.608H33.6912V216.945H37.9523L42.9543 211.955L47.6917 216.575H78.8687L82.7327 220.219L79.0275 223.994H73.2315V230.331L69.4203 233.921L64.7623 229.935ZM13.3389 262.224V256.099H7.25169L3.59938 252.086L7.25169 248.073H13.3389V241.947L17.2029 238.066L20.7758 241.367V248.442H44.7011V237.274H52.6938V252.086V266.897H44.7011V255.729H20.7758V262.805L17.2029 266.105L13.3389 262.224ZM23.6871 303.464V272.653L19.0555 268.006L23.4224 263.967V258.37H42.0545V266.897H31.0446V289.841H36.8672L41.0752 294.039L37.2377 297.814H31.0446V303.966L27.2865 307.398L23.6871 303.464ZM38.2169 318.672H33.8765V314.5L29.0861 309.299L33.6912 305.101V300.454H38.3228L42.9543 295.913L47.6917 300.639H51.7675V304.494L56.5314 309.536L51.5822 313.998V318.856H47.136L42.6632 323.16L38.2169 318.672ZM66.9325 351.278L62.1157 356.11V360.36H43.7748V352.704H54.1759V329.074H48.5651L44.5423 325.008L48.2211 321.47H54.2289V315.16L58.3576 311.437L62.2216 315.53V346.394L66.9325 351.278ZM20.4053 339.344V344.572L16.1972 348.479L12.5978 344.281V339.159H6.66943L3.51998 335.252L6.51064 331.556H37.767L42.6367 326.883L47.4536 331.741H51.5293V350.09H43.7748V339.344H20.4053ZM78.6834 370.683H46.8184L42.1868 375.198L37.7405 370.419H33.1354V352.73H41.1282V363.027H64.7623V357.218L68.7587 353.179L72.4639 357.007V363.766H79.001L82.2828 367.225L78.6834 370.683ZM88.7141 342.803H93.4515V347.37L98.2418 352.044L93.5838 356.69V361.02H88.767L84.1884 365.403L80.1391 361.126H75.1105V355.951L70.6113 351.304L75.2958 346.605V341.984H79.7156L84.109 337.892L88.7141 342.803ZM72.9139 308.876V331.873H78.5247L82.3358 335.965L78.6834 339.344H72.6492V345.522L68.7852 349.43L64.8417 345.364V314.526L60.2896 309.721L64.7359 305.708V300.665H83.4738V308.903H72.9139V308.876ZM89.1111 290.395H93.6897V308.85H86.1204V297.972H62.0893V304.467L58.4634 307.741L54.3876 303.411V297.972H48.7504L44.807 294.039L48.7504 290.184H79.9273L84.5854 285.775L89.1111 290.395ZM94.3249 258.924V263.861L98.2948 268.64L93.2133 273.207V278.065H88.9787L84.6912 282.105L80.1655 277.511H75.9045V272.679L71.4582 268.481L76.0898 264.495V258.37H81.9123L85.4058 254.145L89.4551 258.924H94.3249ZM88.9523 226.106H93.1868V230.964L98.2683 235.532L94.2984 240.311V245.248H89.4022L85.3793 250.026L81.8858 245.802H76.0633V239.677L71.4318 235.69L75.8781 231.492V226.661H80.1391L84.6648 222.067L88.9523 226.106ZM93.6897 195.295V213.75H89.1111L84.5854 218.344L79.9273 213.961H48.7769L44.8334 210.107L48.7769 206.173H54.4141V200.734L58.4899 196.404L62.1157 199.678V206.173H86.1469V195.295H93.6897ZM78.5247 172.299H72.9139V195.295H83.5003V203.533H64.7623V198.49L60.316 194.477L64.8682 189.672V158.834L68.8116 154.768L72.6757 158.676V164.854H78.7099L82.3622 168.233L78.5247 172.299ZM84.1354 166.279L79.7421 162.187H75.3223V157.567L70.6378 152.867L75.137 148.221V143.046H80.1655L84.2148 138.795L88.7935 143.178H93.6103V147.508L98.2683 152.154L93.4779 156.828V161.395H88.7405L84.1354 166.279Z" fill="url(#paint0_linear_5_678)"/>
</g>
<defs>
<linearGradient id="paint0_linear_5_678" x1="51" y1="0" x2="51" y2="379" gradientUnits="userSpaceOnUse">
<stop stop-color="#F58A18"/>
<stop offset="1" stop-color="#F58A18" stop-opacity="0"/>
</linearGradient>
<clipPath id="clip0_5_678">
<rect width="102" height="379" fill="white"/>
</clipPath>
</defs>
</svg>
