<svg xmlns="http://www.w3.org/2000/svg" xmlns:xlink="http://www.w3.org/1999/xlink" viewBox="0 0 386.82 177.18"><defs><style>.cls-1{fill:none;}.cls-2{fill:#c1982e;}.cls-3{clip-path:url(#clip-path);}.cls-4{fill:url(#linear-gradient);}.cls-5{clip-path:url(#clip-path-2);}.cls-6{fill:url(#linear-gradient-2);}.cls-7{clip-path:url(#clip-path-3);}.cls-8{fill:url(#linear-gradient-3);}.cls-9{clip-path:url(#clip-path-4);}.cls-10{fill:url(#linear-gradient-4);}.cls-11{clip-path:url(#clip-path-5);}.cls-12{fill:url(#linear-gradient-5);}.cls-13{fill:#067a85;}.cls-14{clip-path:url(#clip-path-6);}.cls-15{fill:url(#linear-gradient-6);}</style><clipPath id="clip-path"><path class="cls-1" d="M349.11,39.36h-8.62V70.52H305.77V54.94h-8.63V70.52h-6.95V54.94h-8.63V70.52h-6.95V54.94H266V70.52H228.7V54.94h-8.63V70.52h-6.95V54.94H159.6V79.15H349.11V39.36ZM204.49,70.52H168.22V63.57h36.27Z"/></clipPath><linearGradient id="linear-gradient" x1="527.49" y1="-196.43" x2="528.49" y2="-196.43" gradientTransform="matrix(-114.71, 0, 0, 114.71, 60847.86, 22592.14)" gradientUnits="userSpaceOnUse"><stop offset="0" stop-color="#00a14a"/><stop offset="1" stop-color="#016c90"/></linearGradient><clipPath id="clip-path-2"><rect class="cls-1" x="356.07" y="39.36" width="8.62" height="39.78"/></clipPath><linearGradient id="linear-gradient-2" x1="528.49" y1="-197.16" x2="529.49" y2="-197.16" gradientTransform="matrix(-98.27, 0, 0, 98.27, 52351.77, 19433.72)" xlink:href="#linear-gradient"/><clipPath id="clip-path-3"><rect class="cls-1" x="204.49" y="39.36" width="8.62" height="8.62"/></clipPath><linearGradient id="linear-gradient-3" x1="528.49" y1="-197.16" x2="529.49" y2="-197.16" gradientTransform="matrix(-98.27, 0, 0, 98.27, 52201.82, 19418.17)" xlink:href="#linear-gradient"/><clipPath id="clip-path-4"><rect class="cls-1" x="220.08" y="39.36" width="8.62" height="8.62"/></clipPath><linearGradient id="linear-gradient-4" x1="528.49" y1="-197.16" x2="529.49" y2="-197.16" gradientTransform="matrix(-98.27, 0, 0, 98.27, 52214.57, 19418.17)" xlink:href="#linear-gradient"/><clipPath id="clip-path-5"><rect class="cls-1" x="188.91" y="39.36" width="8.62" height="8.62"/></clipPath><linearGradient id="linear-gradient-5" x1="528.49" y1="-197.16" x2="529.49" y2="-197.16" gradientTransform="matrix(-98.27, 0, 0, 98.27, 52189.07, 19418.14)" xlink:href="#linear-gradient"/><clipPath id="clip-path-6"><path class="cls-1" d="M59.4,118.14a22,22,0,0,1-3.87-10.22,21.73,21.73,0,0,1,.27-6.54c.14-.74.33-1.46.54-2.18.17-.53.34-1,.54-1.56A21.85,21.85,0,0,1,66.93,86.31c.46-.24.92-.47,1.39-.68a37.69,37.69,0,0,0-3.9,13.57h0c-.16,1.3-.25,2.63-.3,4H57.06a20.7,20.7,0,0,0,0,4.72h7.07a51,51,0,0,0,1,8.17h0a37,37,0,0,0,2,6.75,23.93,23.93,0,0,0,1.25,2.64,21.87,21.87,0,0,1-8.92-7.34m30.9-10.22A56.43,56.43,0,0,0,90,99.2h0c0-.45-.09-.91-.15-1.36a40.84,40.84,0,0,0-2.11-8.64c-.23-.63-.49-1.26-.77-1.88-.13-.29-.27-.58-.41-.86s-.28-.76-.44-.83a21.9,21.9,0,0,1,12,13.57h0a22.06,22.06,0,0,1,.82,4H91.82c.06,1.58.06,3.15,0,4.73H98.9a21.7,21.7,0,0,1-2.6,8.17,19.42,19.42,0,0,1-1.28,2,21.82,21.82,0,0,1-8.92,7.35,23,23,0,0,0,1.25-2.64,37.47,37.47,0,0,0,2-6.75h0a52.09,52.09,0,0,0,1-8.17M72.51,123.23a27.1,27.1,0,0,1-2.58-7.14,50.06,50.06,0,0,1-1-6.62,45.8,45.8,0,0,1,.26-10.27h0c0-.16,0-.32.07-.48.6-4,1.61-8.44,3.94-12,.88-1.33,2.26-3,4-3,3.16,0,6.83,6.16,8,15.47h0c.16,1.28.29,2.61.33,4H70.34a41.47,41.47,0,0,0,0,4.73H85.56a44.43,44.43,0,0,1-1.08,8.17c-1.59,6.93-4.61,11.29-7.27,11.29-2.19,0-3.78-2.48-4.7-4.15M42.63,112.47V72.64A22.63,22.63,0,0,1,54.41,52.78L77.25,40.29,100,52.78a22.61,22.61,0,0,1,11.74,19.86v39.83a58.89,58.89,0,0,0-9.83,2.64,26.81,26.81,0,0,0,1-15.91h0c-.19-.8-.4-1.59-.65-2.4A25.56,25.56,0,0,0,89.57,81.91,6.38,6.38,0,0,1,86,77.29a6.65,6.65,0,0,1-.1-.78l0-.28a2.11,2.11,0,0,0-2.11-2H82.34a20.63,20.63,0,0,1,3.78-10.46,3.85,3.85,0,0,0-.69-5.17,20.69,20.69,0,0,1-7.05-11,.72.72,0,0,0-.7-.55V60.25a1,1,0,1,1-1.08,0V47.1a.71.71,0,0,0-.69.55,20.69,20.69,0,0,1-7,11,3.84,3.84,0,0,0-.69,5.17A20.63,20.63,0,0,1,72,74.27H70.54a2.13,2.13,0,0,0-2.15,1.94,9,9,0,0,1-.6,2.64,6.21,6.21,0,0,1-2.9,3.2A26.7,26.7,0,0,0,51.44,99.2a27.51,27.51,0,0,0,.63,15.11c.08.25.17.51.27.76a58.92,58.92,0,0,0-9.71-2.6m9.22-71.4L77.26,27.18,102.6,41.07a25.13,25.13,0,0,1,12.63,17.5,29.53,29.53,0,0,0-11.82-11.94L77.25,32.3,51,46.63a29.62,29.62,0,0,0-11.87,12A25.17,25.17,0,0,1,51.85,41.07m-3.74-6.84A33,33,0,0,0,31,63.16v48.37c-3.3,0-6.79,0-8.82.24l6.49,17.65a56.69,56.69,0,0,1,10.34,0c.77.07,1.53.15,2.29.25A57.62,57.62,0,0,1,77.2,149a57.61,57.61,0,0,1,36-19.33c.75-.1,1.51-.18,2.28-.25a56.8,56.8,0,0,1,10.35,0l6.48-17.65c-2-.19-5.51-.27-8.81-.24V63.16a33,33,0,0,0-17.11-28.93L77.26,18.29Z"/></clipPath><linearGradient id="linear-gradient-6" x1="524.74" y1="-195.7" x2="525.74" y2="-195.7" gradientTransform="matrix(0, 173.2, 173.2, 0, 33971.98, -90913.82)" xlink:href="#linear-gradient"/></defs><g id="Layer_2" data-name="Layer 2"><g id="Layer_1-2" data-name="Layer 1"><rect class="cls-1" width="386.82" height="177.18"/><path class="cls-2" d="M313.28,86.1v15.58h-7V86.1h-24.2v8.63H297.7v7H282.12v8.63h31.16l51.41,0V86.16Zm42.79,15.64-34.17-.06v-7l34.17,0Z"/><polygon class="cls-2" points="266.54 101.68 250.96 101.68 250.96 110.31 275.16 110.31 275.16 86.1 266.54 86.1 266.54 101.68"/><path class="cls-2" d="M235.38,101.68h-7V86.1H219.8v15.58h-7V86.1h-8.62v15.58h-7V86.1H144v24.21H244V86.1h-8.62Zm-46.74,0h-36v-7h36Z"/><rect class="cls-2" x="144.02" y="70.52" width="8.62" height="8.62"/><rect class="cls-2" x="144.02" y="54.94" width="8.62" height="8.62"/><g class="cls-3"><rect class="cls-4" x="217.61" y="-37.54" width="73.5" height="193.59" transform="translate(149.95 298.65) rotate(-79.55)"/></g><g class="cls-5"><rect class="cls-6" x="340.04" y="51.41" width="40.69" height="15.7" transform="translate(236.75 402.91) rotate(-79.55)"/></g><g class="cls-7"><rect class="cls-8" x="203.78" y="38.65" width="10.04" height="10.04" transform="translate(127.98 241.1) rotate(-79.55)"/></g><g class="cls-9"><rect class="cls-10" x="219.37" y="38.65" width="10.04" height="10.04" transform="translate(140.74 256.42) rotate(-79.55)"/></g><g class="cls-11"><rect class="cls-12" x="188.2" y="38.65" width="10.04" height="10.04" transform="translate(115.23 225.77) rotate(-79.55)"/></g><path class="cls-2" d="M115.44,132c-.77.07-1.52.16-2.29.26A58.48,58.48,0,0,0,99,136.05,57.73,57.73,0,0,0,77.2,151.63a57.69,57.69,0,0,0-21.75-15.58,58.43,58.43,0,0,0-14.2-3.75c-.76-.1-1.52-.19-2.28-.26a56.8,56.8,0,0,0-10.35,0v7.26a55.91,55.91,0,0,1,10.35,0c.76.07,1.52.16,2.28.26a57.56,57.56,0,0,1,36,19.33,57.62,57.62,0,0,1,36-19.33c.77-.1,1.52-.19,2.29-.26a55.8,55.8,0,0,1,10.34,0V132a56.69,56.69,0,0,0-10.34,0"/><path class="cls-13" d="M193,136.74a2.19,2.19,0,0,0-1.63.69,2.27,2.27,0,0,0-.67,1.65,2.29,2.29,0,0,0,2.3,2.31,2.28,2.28,0,0,0,1.66-.67,2.19,2.19,0,0,0,.68-1.64,2.24,2.24,0,0,0-.68-1.67,2.32,2.32,0,0,0-1.66-.67"/><path class="cls-13" d="M268.72,129.17a7.29,7.29,0,0,0-1.79-5,5.94,5.94,0,0,0-4.72-2,5.44,5.44,0,0,0-5.81,5.68,6.61,6.61,0,0,0,.52,2.68h3.71a8.86,8.86,0,0,1-.38-2.44,3.16,3.16,0,0,1,.55-1.93,1.85,1.85,0,0,1,1.55-.72,1.89,1.89,0,0,1,1.78,1,5.76,5.76,0,0,1,.56,2.72,6.58,6.58,0,0,1-1.46,4.46,5.28,5.28,0,0,1-4.22,1.7,5.56,5.56,0,0,1-4.8-2.32,10.28,10.28,0,0,1-1.67-6.11,25.49,25.49,0,0,1,.14-2.82h-3.82a21.18,21.18,0,0,0-.17,2.85c0,3.77.93,6.68,2.8,8.75a9.08,9.08,0,0,0,4.79,2.78,4.72,4.72,0,0,0-.94.64,4.31,4.31,0,0,0-1.45,3.41,4,4,0,0,0,1.45,3.22A5.52,5.52,0,0,0,259,147a4.51,4.51,0,0,0,3.28-1.19,6.07,6.07,0,0,0,1.67-3.15,26.91,26.91,0,0,1,4.24,3.82v-3.89a17.29,17.29,0,0,0-4.08-3.32,10.58,10.58,0,0,0-1.88-.87,8.5,8.5,0,0,0,3.85-2.3,9.49,9.49,0,0,0,2.62-6.88m-9.63,15a2,2,0,0,1-1.38-.44,1.63,1.63,0,0,1-.52-1.28,1.56,1.56,0,0,1,.55-1.27,2.27,2.27,0,0,1,1.48-.45,6,6,0,0,1,2.14.45c-.16,2-.92,3-2.27,3"/><path class="cls-13" d="M269.58,117.16H241.19v1.34a2.13,2.13,0,0,0-2-1.34H211.28v1.34a2.13,2.13,0,0,0-2-1.34h-44v1.34a2.09,2.09,0,0,0-1.89-1.33H142.19v3.27h0v3a5.16,5.16,0,0,1,3.46,1.05,5.06,5.06,0,0,1,1.53,3.25,6.34,6.34,0,0,0-3.34,2.13,6,6,0,0,0-1.24,3.82,5.77,5.77,0,0,0,1.81,4.58,6.8,6.8,0,0,0,4.66,1.58,11.52,11.52,0,0,0,2.28-.2v-3.34a10.91,10.91,0,0,1-1.55.1,3.61,3.61,0,0,1-2.26-.67,2.39,2.39,0,0,1-.88-2,2.48,2.48,0,0,1,1-2.08,4,4,0,0,1,2.57-.74,4.8,4.8,0,0,1,3.83,1.56,6.33,6.33,0,0,1,1.36,4.29v3.09l4-2.18V120.43h3.44a1.92,1.92,0,0,1,1.58.52,3,3,0,0,1,.42,1.85v17.07l4-2.18V120.43h4.54v14.66h3.89a31.38,31.38,0,0,1,3-3.44,34.24,34.24,0,0,1,3.44-3.06v11.28l3.86-2.18V124.42h-3.86a16,16,0,0,0-3,2.07,32.64,32.64,0,0,0-3.46,3.3v-9.36h24.51v2.1a26.92,26.92,0,0,0-10.57,5.78v4l10.53,7.57,0,0v0h3.89V120.43h3.2a1.93,1.93,0,0,1,1.58.52,3.09,3.09,0,0,1,.41,1.85v17.07l4-2.18V120.43h4v3a5.69,5.69,0,0,1,3.94,1.37,6.55,6.55,0,0,1,1.95,4c-.21.26-.51.67-.9,1.24s-.69,1-.91,1.28a3.75,3.75,0,0,1-1,.79,2.48,2.48,0,0,1-1.3.38,7.16,7.16,0,0,1-2-.31v3.33a7.8,7.8,0,0,0,2.55.45,5.43,5.43,0,0,0,4.35-2c.45-.57.86-1.14,1.22-1.7a7.85,7.85,0,0,1,1.19-1.43,2,2,0,0,1,1.39-.59c1.47,0,2.21,1.09,2.21,3.27v6.4l4-2.18V120.43h3.23a2,2,0,0,1,1.59.52,3.09,3.09,0,0,1,.41,1.85v17.07l4-2.18V120.43h26.92v3a5.71,5.71,0,0,1,3.94,1.37,6.49,6.49,0,0,1,1.94,4c-.21.26-.5.67-.89,1.24s-.7,1-.92,1.28a3.68,3.68,0,0,1-.94.79,2.51,2.51,0,0,1-1.31.38,7.22,7.22,0,0,1-2-.31v3.33A7.84,7.84,0,0,0,274,136a5.43,5.43,0,0,0,2.56-.58,5.33,5.33,0,0,0,1.79-1.45c.45-.57.86-1.14,1.23-1.7a7.44,7.44,0,0,1,1.18-1.43,2,2,0,0,1,1.4-.59c1.46,0,2.2,1.09,2.2,3.27v6.4l4-2.18V120.43h3.31v-3.27h-22.1Zm-114.23,13a5.73,5.73,0,0,0-4.4-2.72,9.76,9.76,0,0,0-1.59-4.28,7.53,7.53,0,0,0-3.44-2.77h9.43Zm46.4,5.34-7-5.23a25.41,25.41,0,0,1,7-4Zm29.77-7.4a3.46,3.46,0,0,0-3-1.38,3.07,3.07,0,0,0-.59,0,9.13,9.13,0,0,0-1.86-3.86,8.3,8.3,0,0,0-3.47-2.51h9Zm52.86-7.71v7.71a3.43,3.43,0,0,0-3-1.38,2.89,2.89,0,0,0-.58,0,9.38,9.38,0,0,0-1.86-3.86,8.4,8.4,0,0,0-3.48-2.51Z"/><path class="cls-13" d="M351.2,117.16h-6.81v1.34a2.13,2.13,0,0,0-2-1.34H299.91v3.27H302v3a5.69,5.69,0,0,1,3.94,1.37,6.55,6.55,0,0,1,1.95,4c-.21.26-.51.67-.9,1.24s-.69,1-.91,1.28a3.75,3.75,0,0,1-.95.79,2.49,2.49,0,0,1-1.31.38,7.15,7.15,0,0,1-2-.31v3.33a7.78,7.78,0,0,0,2.54.45,5.47,5.47,0,0,0,2.57-.58,5.54,5.54,0,0,0,1.79-1.45c.45-.57.85-1.14,1.22-1.7a7.47,7.47,0,0,1,1.19-1.43,2,2,0,0,1,1.39-.59c1.47,0,2.2,1.09,2.2,3.27v5.33q-.33,0-.66,0a5.61,5.61,0,0,0-3.85,1.28,4.29,4.29,0,0,0-1.45,3.4,4,4,0,0,0,1.45,3.22,5.47,5.47,0,0,0,3.68,1.22,4.53,4.53,0,0,0,3.29-1.18,6.22,6.22,0,0,0,1.67-3.15,26,26,0,0,1,4.23,3.82v-3.89a17,17,0,0,0-4.08-3.32,10,10,0,0,0-2.75-1.13l2.47-1.35V120.43h16.21v5.91l-.14-.29a7.39,7.39,0,0,0-2.84-3.27,6.45,6.45,0,0,0-3.32-.84,6.36,6.36,0,0,0-3.35.84,5.6,5.6,0,0,0-1.2,1,6.24,6.24,0,0,0-1.31,2.29,7.1,7.1,0,0,0-.33,2.26,9.94,9.94,0,0,0,.27,2.13h3.89a8.69,8.69,0,0,1-.18-1.79,3.56,3.56,0,0,1,.71-2.31,2.72,2.72,0,0,1,.3-.29,2.64,2.64,0,0,1,1.78-.56,3.14,3.14,0,0,1,1.81.56,4,4,0,0,1,.52.42,7.33,7.33,0,0,1,1.72,2.58,20.78,20.78,0,0,1,1.06,3.21,28,28,0,0,1,.61,3.31v.64c-1.33-3-3.43-4.41-6.3-4.41a5.86,5.86,0,0,0-4.55,1.82,6.52,6.52,0,0,0-1.64,4.54,10,10,0,0,0,.27,2.14h3.89a8.69,8.69,0,0,1-.18-1.79,3.49,3.49,0,0,1,.71-2.3,2.53,2.53,0,0,1,2.08-.87,3.38,3.38,0,0,1,2.33,1,7.52,7.52,0,0,1,1.72,2.58,21,21,0,0,1,.9,2.67l4.76-2.19V120.43h3a1.93,1.93,0,0,1,1.58.52,3.09,3.09,0,0,1,.41,1.85v16.58h4V120.43h16.76v-3.27Zm-37.25,28a2,2,0,0,1-1.38-.45,1.59,1.59,0,0,1-.51-1.27,1.52,1.52,0,0,1,.55-1.27,2.27,2.27,0,0,1,1.48-.45,6,6,0,0,1,2.13.45c-.16,2-.92,3-2.27,3m-2.26-18.38a3,3,0,0,0-.59,0,9.13,9.13,0,0,0-1.86-3.86,8.37,8.37,0,0,0-3.47-2.51h8.94v7.71a3.43,3.43,0,0,0-3-1.38"/><path class="cls-13" d="M364.69,128.28a5.89,5.89,0,0,0-1.8-4.36,6.54,6.54,0,0,0-4.77-1.77,6.44,6.44,0,0,0-4.46,1.51,5,5,0,0,0-1.66,3.86,7.06,7.06,0,0,0,.34,2.24H356a6.54,6.54,0,0,1-.24-1.83,2.49,2.49,0,0,1,.67-1.8,2.34,2.34,0,0,1,1.77-.71,2.42,2.42,0,0,1,1.9.76,3,3,0,0,1,.69,2.1,3.81,3.81,0,0,1-1.24,3,5.53,5.53,0,0,1-3.62,1.12h-3.27v3.2l6.54,4.57h5.34v-.41l-6.78-4.68a8.79,8.79,0,0,0,5-2.17,6.06,6.06,0,0,0,1.87-4.64"/><g class="cls-14"><rect class="cls-15" x="19.86" y="16.39" width="114.68" height="134.51" transform="translate(-2.9 2.77) rotate(-2.02)"/></g><polygon class="cls-2" points="236.72 44.74 234.92 39.45 233.52 39.45 233.52 47.9 234.76 47.9 234.76 42.36 236.26 46.65 237.18 46.65 238.69 42.22 238.69 47.9 239.93 47.9 239.93 39.45 238.54 39.45 236.72 44.74"/><path class="cls-2" d="M243.31,39.45l-2.58,8.45h1.4l.44-1.59h2.5l.43,1.59h1.41l-2.58-8.45Zm-.4,5.6.91-3.36.91,3.36Z"/><path class="cls-2" d="M251.68,39.73a3.13,3.13,0,0,0-1.39-.28h-2.46V47.9h2.46a3.1,3.1,0,0,0,1.39-.29,1.94,1.94,0,0,0,.88-.84,2.66,2.66,0,0,0,.3-1.3V41.88a2.68,2.68,0,0,0-.31-1.32,2,2,0,0,0-.87-.83m-.18,5.73a1.14,1.14,0,0,1-.32.86,1.22,1.22,0,0,1-.9.31h-1.12V40.72h1.12a1.25,1.25,0,0,1,.9.3,1.16,1.16,0,0,1,.32.87Z"/><path class="cls-2" d="M258.17,44.1a1.86,1.86,0,0,0,.79-.78,2.35,2.35,0,0,0,.28-1.19v-.49a2.3,2.3,0,0,0-.28-1.17,1.81,1.81,0,0,0-.79-.76,2.54,2.54,0,0,0-1.21-.27h-2.77V47.9h1.32V44.37h1L258,47.9h1.52l-1.62-3.69.25-.11m-2.66-3.38H257a.89.89,0,0,1,.47.12.79.79,0,0,1,.31.34,1.13,1.13,0,0,1,.1.51v.46a1.12,1.12,0,0,1-.11.5.74.74,0,0,1-.3.33.91.91,0,0,1-.47.11h-1.48Z"/><path class="cls-2" d="M262.43,39.45l-2.58,8.45h1.4l.43-1.59h2.51l.43,1.59H266l-2.58-8.45Zm-.4,5.6.91-3.36.91,3.36Z"/><path class="cls-2" d="M270.41,43.51a5.3,5.3,0,0,0-1.06-.42h-.09l-.06,0h-.06q-.5-.15-.78-.27a1.2,1.2,0,0,1-.46-.34.84.84,0,0,1-.19-.57v-.27a.81.81,0,0,1,.31-.69,1.43,1.43,0,0,1,.89-.24,1,1,0,0,1,.71.26,1.75,1.75,0,0,1,.47.77l1.2-.56a2.83,2.83,0,0,0-.47-1,1.94,1.94,0,0,0-.79-.59,2.85,2.85,0,0,0-1.08-.2,3.2,3.2,0,0,0-1.38.27,1.89,1.89,0,0,0-.88.77,2.39,2.39,0,0,0-.3,1.23v.24a2.16,2.16,0,0,0,.31,1.23,1.92,1.92,0,0,0,.75.67,6.29,6.29,0,0,0,1.13.4l.07,0h0c.31.1.56.18.75.26a1.21,1.21,0,0,1,.46.33.88.88,0,0,1,.17.55v.37a.88.88,0,0,1-.33.73,1.43,1.43,0,0,1-.91.25,1.32,1.32,0,0,1-.87-.28,1.56,1.56,0,0,1-.52-.82l-1.26.55a2.4,2.4,0,0,0,.5,1,2.17,2.17,0,0,0,.88.62,3.28,3.28,0,0,0,1.22.21,3.36,3.36,0,0,0,1.42-.27,1.87,1.87,0,0,0,.89-.77,2.35,2.35,0,0,0,.31-1.24v-.37a2.11,2.11,0,0,0-.29-1.17,1.76,1.76,0,0,0-.7-.66"/><path class="cls-2" d="M274.6,39.45,272,47.9h1.41l.43-1.59h2.5l.44,1.59h1.4l-2.58-8.45Zm-.41,5.6.91-3.36.91,3.36Z"/><polygon class="cls-2" points="278.01 40.72 279.91 40.72 279.91 47.9 281.23 47.9 281.23 40.72 283.13 40.72 283.13 39.45 278.01 39.45 278.01 40.72"/><path class="cls-2" d="M287.37,45.42a1.29,1.29,0,0,1-.31.93,1.33,1.33,0,0,1-1.73,0,1.33,1.33,0,0,1-.3-.93v-6H283.7v5.94a3.18,3.18,0,0,0,.29,1.4,2,2,0,0,0,.85.89,3.12,3.12,0,0,0,2.71,0,2,2,0,0,0,.85-.89,3,3,0,0,0,.3-1.4V39.45h-1.33Z"/><path class="cls-2" d="M293.84,43.51a5.56,5.56,0,0,0-1.06-.42h-.1l-.06,0h-.06a7.09,7.09,0,0,1-.77-.27,1.17,1.17,0,0,1-.47-.34.89.89,0,0,1-.19-.57v-.27a.84.84,0,0,1,.31-.69,1.45,1.45,0,0,1,.89-.24,1,1,0,0,1,.71.26,1.66,1.66,0,0,1,.47.77l1.2-.56a2.66,2.66,0,0,0-.47-1,1.94,1.94,0,0,0-.79-.59,2.77,2.77,0,0,0-1.08-.2,3.2,3.2,0,0,0-1.38.27,1.87,1.87,0,0,0-.87.77,2.39,2.39,0,0,0-.31,1.23v.24a2.24,2.24,0,0,0,.31,1.23,2.07,2.07,0,0,0,.75.67,6.15,6.15,0,0,0,1.14.4l.06,0h.05c.31.1.56.18.75.26a1.17,1.17,0,0,1,.45.33.82.82,0,0,1,.17.55v.37a.9.9,0,0,1-.32.73,1.46,1.46,0,0,1-.92.25,1.34,1.34,0,0,1-.87-.28,1.55,1.55,0,0,1-.51-.82l-1.26.55a2.39,2.39,0,0,0,.49,1,2.17,2.17,0,0,0,.88.62,3.3,3.3,0,0,0,1.23.21,3.35,3.35,0,0,0,1.41-.27,2,2,0,0,0,.9-.77,2.45,2.45,0,0,0,.3-1.24v-.37a2.11,2.11,0,0,0-.28-1.17,1.9,1.9,0,0,0-.7-.66"/><path class="cls-2" d="M302.78,43.51a5.56,5.56,0,0,0-1.06-.42h-.1l-.06,0h-.06c-.32-.1-.58-.19-.77-.27a1.24,1.24,0,0,1-.47-.34.88.88,0,0,1-.18-.57v-.27a.81.81,0,0,1,.31-.69,1.4,1.4,0,0,1,.88-.24,1,1,0,0,1,.71.26,1.66,1.66,0,0,1,.47.77l1.21-.56a2.84,2.84,0,0,0-.48-1,1.91,1.91,0,0,0-.78-.59,2.86,2.86,0,0,0-1.09-.2,3.2,3.2,0,0,0-1.38.27,1.87,1.87,0,0,0-.87.77,2.39,2.39,0,0,0-.3,1.23v.24a2.24,2.24,0,0,0,.3,1.23,2.07,2.07,0,0,0,.75.67,6.15,6.15,0,0,0,1.14.4l.07,0h0c.31.1.56.18.75.26a1.1,1.1,0,0,1,.45.33.82.82,0,0,1,.17.55v.37a.87.87,0,0,1-.32.73,1.45,1.45,0,0,1-.91.25,1.36,1.36,0,0,1-.88-.28,1.61,1.61,0,0,1-.51-.82l-1.26.55a2.39,2.39,0,0,0,.49,1,2.23,2.23,0,0,0,.88.62,3.79,3.79,0,0,0,2.65-.06,2,2,0,0,0,.89-.77,2.45,2.45,0,0,0,.31-1.24v-.37a2.11,2.11,0,0,0-.29-1.17,1.83,1.83,0,0,0-.7-.66"/><path class="cls-2" d="M308.42,45.42a1.29,1.29,0,0,1-.31.93,1.14,1.14,0,0,1-.86.32,1.12,1.12,0,0,1-.86-.32,1.29,1.29,0,0,1-.31-.93v-6h-1.33v5.94a3.18,3.18,0,0,0,.29,1.4,2,2,0,0,0,.85.89,3.12,3.12,0,0,0,2.71,0,2,2,0,0,0,.85-.89,3,3,0,0,0,.3-1.4V39.45h-1.33Z"/><polygon class="cls-2" points="315.1 45.38 312.35 39.45 311.08 39.45 311.08 47.89 312.34 47.89 312.34 42.12 315.07 47.89 316.36 47.89 316.36 39.45 315.1 39.45 315.1 45.38"/><polygon class="cls-2" points="321.92 45.38 319.18 39.45 317.9 39.45 317.9 47.89 319.17 47.89 319.17 42.12 321.89 47.89 323.19 47.89 323.19 39.45 321.92 39.45 321.92 45.38"/><path class="cls-2" d="M326.57,39.45,324,47.9h1.4l.44-1.59h2.5l.43,1.59h1.41l-2.58-8.45Zm-.4,5.6.91-3.36.91,3.36Z"/><polygon class="cls-2" points="334.79 39.45 334.79 43.1 332.42 43.1 332.42 39.45 331.09 39.45 331.09 47.9 332.42 47.9 332.42 44.36 334.79 44.36 334.79 47.9 336.12 47.9 336.12 39.45 334.79 39.45"/></g></g></svg>